P2
# Created by GIMP version 2.10.18 PNM plug-in
24 24
255
0
0
0
0
0
0
0
0
0
0
0
0
0
0
0
0
0
0
0
0
0
0
0
255
0
0
0
0
0
0
0
0
0
0
0
0
0
0
0
0
0
0
0
0
0
0
0
200
0
0
0
0
0
0
0
255
255
200
200
255
100
255
200
200
255
255
0
0
0
0
0
200
0
0
0
0
0
0
0
200
0
0
0
0
0
0
0
0
0
200
0
0
0
0
0
200
0
0
0
0
0
0
0
200
0
0
0
0
0
0
0
0
0
200
0
0
0
0
0
255
0
0
0
0
0
0
0
200
0
0
0
0
0
0
0
0
0
255
255
255
100
255
255
255
0
0
0
0
0
0
0
255
255
255
100
255
255
0
0
0
0
0
0
0
0
0
0
0
0
0
0
0
0
0
0
0
0
0
0
0
200
0
0
0
0
0
0
0
0
0
0
0
0
0
0
0
0
0
0
0
0
0
0
0
200
0
0
0
0
0
0
0
0
0
0
0
0
0
0
0
0
0
0
0
0
0
0
0
255
255
200
200
200
255
255
100
255
255
255
0
0
0
0
0
0
0
0
0
0
0
0
0
0
0
0
0
0
0
0
0
0
0
255
0
0
0
0
0
0
0
0
0
0
0
0
0
0
0
0
0
0
0
0
0
0
0
200
0
0
0
0
0
0
0
0
0
0
0
0
0
0
0
0
0
0
0
0
0
0
0
200
0
0
0
0
0
0
0
0
0
0
0
0
0
0
0
0
0
0
0
0
0
0
0
200
0
0
0
0
0
0
0
0
0
0
0
0
0
0
0
0
0
0
0
0
0
0
0
200
0
0
0
0
0
0
255
200
200
100
255
200
200
255
0
0
0
0
0
0
0
0
0
255
0
0
0
0
0
0
255
0
0
0
0
0
0
255
0
0
0
255
255
255
100
255
255
255
0
0
0
0
0
0
255
0
0
0
0
0
0
100
0
0
0
200
0
0
0
0
0
0
0
255
255
100
255
255
255
0
0
0
0
0
0
255
0
0
0
200
0
0
0
0
0
0
0
200
0
0
0
0
0
0
0
0
0
0
0
255
0
0
0
255
0
0
0
0
0
0
0
200
0
0
0
0
0
0
0
0
0
0
0
255
200
200
255
255
0
0
0
0
0
0
0
200
0
0
0
0
0
0
0
0
0
0
0
0
0
0
0
0
0
0
0
0
0
0
0
255
0
0
0
0
0
0
0
0
0
0
0
0
0
0
0
0
0
0
0
0
0
0
0
255
0
0
0
0
0
0
0
0
0
0
0
0
0
0
0
0
0
0
0
0
0
0
0
